<svg xmlns="http://www.w3.org/2000/svg" viewBox="19 23 90 90" width="128" height="128">
  <!-- Top Half (Yellow) -->
  <path d="M 52 30 L 76 30 L 76 50 L 100 96 A 8 8 0 0 1 92 106 L 36 106 A 8 8 0 0 1 28 96 L 52 50 Z" fill="#FFD849" stroke="none"/>
  <!-- Bottom Half (Blue) -->
  <path d="M 44.5 64 L 83.5 64 L 100 96 A 8 8 0 0 1 92 106 L 36 106 A 8 8 0 0 1 28 96 Z" fill="#2764CC" stroke="none"/>
  <!-- Flask Outline -->
  <path d="M 52 30 L 76 30 L 76 50 L 100 96 A 8 8 0 0 1 92 106 L 36 106 A 8 8 0 0 1 28 96 L 52 50 Z" fill="none" stroke="#000" stroke-width="8" stroke-linejoin="round"/>
  <!-- Straps -->
  <rect x="32" y="61" width="16" height="6" fill="#1A1D26"/>
  <rect x="80" y="61" width="16" height="6" fill="#1A1D26"/>
  <!-- Eye (Goggle) -->
  <circle cx="64" cy="64" r="14" fill="#FFF" stroke="#C7CDD6" stroke-width="6"/>
  <circle cx="64" cy="64" r="17" fill="none" stroke="#000" stroke-width="4"/>
  <circle cx="64" cy="64" r="11" fill="none" stroke="#000" stroke-width="4"/>
  <circle cx="64" cy="64" r="5" fill="#1A1D26"/>
</svg>
